<?xml version="1.0" encoding="utf-8"?>
<!-- Generator: Adobe Illustrator 24.2.3, SVG Export Plug-In . SVG Version: 6.00 Build 0)  -->
<svg version="1.1" id="レイヤー_1" xmlns="http://www.w3.org/2000/svg" xmlns:xlink="http://www.w3.org/1999/xlink" x="0px"
	 y="0px" width="1190.55px" height="841.89px" viewBox="0 0 1190.55 841.89" style="enable-background:new 0 0 1190.55 841.89;"
	 xml:space="preserve">
<style type="text/css">
	.st0{fill:#2EA7E0;}
	.st1{fill:#FFFFFF;}
	.st2{fill:#2EA7E0;stroke:#2EA7E0;stroke-width:0.5371;stroke-miterlimit:10;}
	.st3{fill:#2EA7E0;stroke:#2EA7E0;stroke-width:0.506;stroke-miterlimit:10;}
</style>
<g>
	<path class="st0" d="M373.367,346.679c-0.058-0.001-0.116-6.308-0.174-6.308c-20.068,0-36.337,40.916-36.337,83.612
		s16.269,77.309,36.337,77.309c0.058,0,0.116-0.004,0.174-0.005V346.679z"/>
	<path class="st0" d="M373.193,501.562c-20.186,0-36.608-34.802-36.608-77.579c0-44.686,17.106-83.883,36.608-83.883
		c0.295,0,0.295,0,0.357,3.419c0.02,1.08,0.044,2.378,0.065,2.891h0.021v155.148L373.193,501.562z M372.945,340.644
		c-19.109,0.335-35.818,39.135-35.818,83.34c0,42.409,16.128,76.924,35.97,77.038V346.679h0.025
		c-0.061-0.359-0.077-1.196-0.112-3.149C372.99,342.453,372.966,341.159,372.945,340.644z"/>
</g>
<g>
	<path class="st0" d="M585.521,346.679c-0.058-0.001-0.116-6.308-0.174-6.308c-20.068,0-36.337,40.916-36.337,83.612
		s16.269,77.309,36.337,77.309c0.058,0,0.116-0.004,0.174-0.005V346.679z"/>
	<path class="st0" d="M585.347,501.562c-20.186,0-36.607-34.802-36.607-77.579c0-44.686,17.106-83.883,36.607-83.883
		c0.295,0,0.295,0,0.358,3.43c0.02,1.076,0.043,2.369,0.065,2.88h0.021v155.148L585.347,501.562z M585.099,340.644
		c-19.109,0.335-35.818,39.135-35.818,83.34c0,42.409,16.127,76.924,35.97,77.038V346.679h0.025
		c-0.061-0.358-0.076-1.193-0.112-3.139C585.144,342.458,585.12,341.16,585.099,340.644z"/>
</g>
<g>
	<path class="st0" d="M813.926,346.308c-0.058-0.001-0.116-6.308-0.174-6.308c-20.068,0-36.337,40.916-36.337,83.612
		s16.269,77.309,36.337,77.309c0.058,0,0.116-0.004,0.174-0.005V346.308z"/>
	<path class="st0" d="M813.752,501.192c-20.186,0-36.607-34.802-36.607-77.58c0-44.686,17.106-83.883,36.607-83.883
		c0.295,0,0.295,0,0.358,3.439c0.02,1.072,0.043,2.36,0.064,2.871h0.021v155.148L813.752,501.192z M813.503,340.273
		c-19.108,0.335-35.817,39.135-35.817,83.339c0,42.409,16.128,76.925,35.97,77.039V346.308h0.025
		c-0.061-0.358-0.076-1.19-0.111-3.129C813.549,342.094,813.525,340.791,813.503,340.273z"/>
</g>
<g>
	<path class="st0" d="M431.698,405.806c-0.036,0-0.072-3.91-0.108-3.91c-12.439,0-22.522,25.36-22.522,51.824
		s10.084,47.917,22.522,47.917c0.036,0,0.072-0.003,0.108-0.003V405.806z"/>
	<path class="st0" d="M431.59,501.906c-12.567,0-22.791-21.616-22.791-48.187c0-27.75,10.65-52.093,22.791-52.093
		c0.282,0,0.282,0,0.322,2.219c0.011,0.61,0.025,1.335,0.037,1.695h0.017v96.363L431.59,501.906z M431.339,402.167
		c-11.75,0.338-22.002,24.283-22.002,51.552c0,26.158,9.896,47.462,22.093,47.648v-95.562h0.018
		c-0.041-0.273-0.051-0.827-0.072-1.95C431.364,403.249,431.351,402.53,431.339,402.167z"/>
</g>
<g>
	<path class="st0" d="M445.615,405.388c-0.037,0-0.073-3.971-0.109-3.971c-12.632,0-22.872,25.755-22.872,52.63
		s10.24,48.662,22.872,48.662c0.037,0,0.073-0.003,0.109-0.003V405.388z"/>
	<path class="st1" d="M445.506,503.533c-13.066,0-23.696-22.199-23.696-49.486c0-25.282,9.732-53.453,23.696-53.453
		c0.827,0,0.83,0.158,0.878,2.794c0.007,0.375,0.015,0.821,0.023,1.188l0.032,0v98.955L445.506,503.533z M444.715,402.279
		c-11.225,1.093-21.258,25.274-21.258,51.768c0,25.86,9.506,46.994,21.335,47.814v-96.473h0.018
		c-0.044-0.414-0.056-1.036-0.073-1.97C444.73,403.06,444.723,402.637,444.715,402.279z"/>
</g>
<g>
	<path class="st0" d="M509.268,405.307c-0.036,0-0.072-3.91-0.108-3.91c-12.439,0-22.522,25.36-22.522,51.824
		s10.084,47.917,22.522,47.917c0.036,0,0.072-0.003,0.108-0.003V405.307z"/>
	<path class="st0" d="M509.16,501.407c-12.567,0-22.791-21.616-22.791-48.186c0-27.751,10.65-52.093,22.791-52.093
		c0.282,0,0.282,0,0.322,2.219c0.011,0.61,0.025,1.335,0.037,1.695h0.017v96.355L509.16,501.407z M508.909,401.669
		c-11.75,0.338-22.003,24.282-22.003,51.553c0,26.158,9.896,47.461,22.093,47.647v-95.562h0.018
		c-0.041-0.273-0.051-0.827-0.072-1.95C508.935,402.75,508.921,402.031,508.909,401.669z"/>
</g>
<g>
	<path class="st0" d="M646.83,404.936c-0.036,0-0.072-3.91-0.108-3.91c-12.439,0-22.522,25.36-22.522,51.824
		s10.084,47.917,22.522,47.917c0.036,0,0.072-0.003,0.108-0.003V404.936z"/>
	<path class="st0" d="M646.722,501.037c-12.566,0-22.79-21.616-22.79-48.187c0-27.75,10.649-52.093,22.79-52.093
		c0.281,0,0.281,0,0.322,2.218c0.012,0.608,0.025,1.331,0.037,1.691h0.018v96.367L646.722,501.037z M646.471,401.298
		c-11.75,0.338-22.002,24.283-22.002,51.552c0,26.16,9.896,47.464,22.093,47.648v-95.563h0.019c-0.042-0.274-0.052-0.829-0.072-1.95
		C646.496,402.38,646.482,401.661,646.471,401.298z"/>
</g>
<g>
	<path class="st0" d="M709.864,405.524c-0.036,0-0.072-3.91-0.108-3.91c-12.439,0-22.522,25.36-22.522,51.824
		c0,26.464,10.084,47.917,22.522,47.917c0.036,0,0.072-0.003,0.108-0.003V405.524z"/>
	<path class="st0" d="M709.756,501.625c-12.567,0-22.791-21.616-22.791-48.187c0-27.75,10.65-52.092,22.791-52.092
		c0.282,0,0.282,0,0.323,2.239c0.011,0.603,0.023,1.317,0.036,1.674l0.017,0v96.362L709.756,501.625z M709.505,401.887
		c-11.75,0.338-22.003,24.282-22.003,51.552c0,26.158,9.896,47.462,22.093,47.648v-95.562h0.019c-0.041-0.271-0.051-0.82-0.071-1.93
		C709.53,402.98,709.518,402.252,709.505,401.887z"/>
</g>
<g>
	<path class="st0" d="M852.279,501.236c0-0.036,1.415-0.072,1.415-0.108c0-12.439-9.176-22.522-18.752-22.522
		c-9.576,0-17.338,10.084-17.338,22.522c0,0.036,0.001,0.072,0.001,0.108H852.279z"/>
	<path class="st0" d="M852.548,501.505h-35.212l-0.001-0.377c0-12.567,7.898-22.791,17.607-22.791
		c10.132,0,19.02,10.65,19.02,22.791c0,0.273-0.091,0.278-0.962,0.322c-0.144,0.008-0.318,0.017-0.452,0.025V501.505z
		 M817.872,500.968h34.387c0.143-0.024,0.366-0.036,0.714-0.054c0.144-0.008,0.317-0.017,0.451-0.025
		c-0.115-11.755-8.702-22.015-18.481-22.015C825.57,478.874,817.938,488.77,817.872,500.968z"/>
</g>
<g>
	<path class="st0" d="M818.672,424.23c0,0.084-1.429,0.167-1.429,0.252c0,29.036,9.268,52.574,18.939,52.574
		s17.512-23.538,17.512-52.574c0-0.084-0.001-0.168-0.001-0.252H818.672z"/>
	<path class="st0" d="M836.183,477.304c-10.222,0-19.188-24.683-19.188-52.821c0-0.264,0.18-0.284,0.937-0.373
		c0.151-0.018,0.356-0.042,0.492-0.063v-0.063h35.514l0.004,0.5C853.941,453.608,845.975,477.304,836.183,477.304z M817.491,424.666
		c0.019,13.711,2.086,26.811,5.827,36.905c3.589,9.683,8.277,15.236,12.864,15.236c9.519,0,17.263-23.473,17.263-52.325v-0.004
		h-34.7c-0.138,0.051-0.372,0.078-0.756,0.124C817.836,424.62,817.629,424.645,817.491,424.666z"/>
</g>
<g>
	<path class="st0" d="M739.795,501.392c0-0.16,1.029-0.318,1.029-0.478c0-55.221-6.674-99.987-13.639-99.987
		s-12.611,44.766-12.611,99.987c0,0.16,0.001,0.319,0.001,0.478H739.795z"/>
	<path class="st0" d="M740.063,501.66h-25.758l-0.001-0.746c0-56.218,5.657-100.256,12.88-100.256
		c7.408,0,13.907,46.849,13.907,100.256c0,0.277-0.295,0.369-0.703,0.495c-0.095,0.029-0.236,0.073-0.325,0.108V501.66z
		 M714.842,501.123h24.828c0.126-0.093,0.324-0.153,0.56-0.227c0.095-0.029,0.236-0.073,0.325-0.108
		c-0.005-26.2-1.498-51.246-4.205-70.538c-2.553-18.193-5.979-29.055-9.165-29.055c-6.69,0-12.343,45.666-12.343,99.719V501.123z"/>
</g>
</svg>
