<svg height="554.5" viewBox="0 0 959 554.5" width="959" xmlns="http://www.w3.org/2000/svg"><path d="m718 399.5h241v2h-241z" fill="#3f3d56"/><path d="m771.744 381.531 7 37 15 4-4-44z" fill="#a0616a"/><path d="m855.744 381.531 7 37 15 4-4-44z" fill="#a0616a"/><path d="m908.24409 584.2815s-16-1-16 4-8 22-8 22-6 20 10 18 26-20 26-20l-4-19z" fill="#2f2e41" transform="translate(-120.5 -172.75)"/><path d="m988.383 586.12508s-10.67275-6.861-9.91041-2.287 1.52468 16.77146 6.86106 17.5338 21.34549 5.33638 22.10783 6.86106 19.05848 7.62339 19.05848-2.287-11.43509-17.5338-11.43509-17.5338l-12.95976-9.91041s-8.38573-.76234-9.91041 4.574-3.8117 3.04935-3.8117 3.04935z" fill="#2f2e41" transform="translate(-120.5 -172.75)"/><path d="m887 343.75s-17-25-23-17 15 23 15 23z" fill="#a0616a" transform="translate(-120.5 -172.75)"/><path d="m893 367.75c-1-1-19-18-19-18l13-9 15 15z" fill="#575a89" transform="translate(-120.5 -172.75)"/><path d="m895.5 290.25s-13 1-12 12 9.5 47.5 9.5 47.5l5 10s18.5-57.5-2.5-69.5z" fill="#575a89" transform="translate(-120.5 -172.75)"/><path d="m896.5 255.25 3.6 12h45.1l1.30005-13 3.9 13h5.79995l1.30005-13 3.9 13h6.1l-5.73535-13.81683a111.387 111.387 0 0 1 -6.04688-20.44233 38.51318 38.51318 0 0 0 -37.71782-30.74084q-.79743 0-1.58691.0321c-25.27832 1.02491-41.46729 27.4964-31.76819 50.86237l5.8551 14.10553h4.80005z" fill="#2f2e41" transform="translate(-120.5 -172.75)"/><path d="m896 359.75s-31 26-22 61 12 145 12 145l31-3v-138l43 82 7 59 35-6-16-72-30.76873-91.778-3.23127-26.47791z" fill="#2f2e41" transform="translate(-120.5 -172.75)"/><circle cx="797" cy="62.5" fill="#a0616a" r="21"/><path d="m905 249.75s9 33 4 37 35-13 35-13-17-19-15-27z" fill="#a0616a" transform="translate(-120.5 -172.75)"/><path d="m942 266.75s-16.01139 13.77211-31.5057 14.88605c0 0-20.4943 11.11395-19.4943 12.11395s4 15 4 15 5 7.72118 5 24c0 2-7 30-7 30l59 8s16-52 17-70 7-37-2-38-25 4-25 4z" fill="#575a89" transform="translate(-120.5 -172.75)"/><path d="m965 266.75s7-6 11 8 20 58 16 67-28 49-28 49l-12-8 24-45-14-32z" fill="#575a89" transform="translate(-120.5 -172.75)"/><path d="m957 381.75s-31 19-21 23 27-17 27-17z" fill="#a0616a" transform="translate(-120.5 -172.75)"/><path d="m774 38.5v21h8l3-9 .75 9h22.25l3-9 .75 9h9.25v-21z" fill="#2f2e41"/><path d="m894.5 310.25s-2 20 1 24-1-24-1-24z" opacity=".2" transform="translate(-120.5 -172.75)"/><path d="m177 486.5h424v2h-424z" fill="#3f3d56"/><path d="m695.71 507.36-123.02 123.02a100.28643 100.28643 0 0 1 -141.82 0c-1.66-1.66-3.26-3.37-4.78-5.13a96.84877 96.84877 0 0 1 -6.99-9 98.77835 98.77835 0 0 1 -15.84-38q-.855-4.455-1.29-9-.465-4.84506-.47-9.78a100.75451 100.75451 0 0 1 3.72-27.22q1.27506-4.575 2.99-9a100.066 100.066 0 0 1 22.66-34.69l53.67-53.67a14.99773 14.99773 0 0 1 21.21 21.21l-53.67 53.67a70.86742 70.86742 0 0 0 -10.57 13.48 69.78657 69.78657 0 0 0 -10.01 36.22 72.046 72.046 0 0 0 .67 9.78 68.42389 68.42389 0 0 0 1.86005 9 70.2693 70.2693 0 0 0 117.44995 30.92l30.92-30.92 55-55 37.1-37.1a70.40164 70.40164 0 0 0 7.87-90.02 15.00468 15.00468 0 0 1 24.61-17.17 100.457 100.457 0 0 1 -11.27 128.4z" fill="#3f3d56" transform="translate(-120.5 -172.75)"/><path d="m888.5 273.03q0 1.11-.03 2.22a99.821 99.821 0 0 1 -8.33 38 96.82561 96.82561 0 0 1 -4.5 9 100.56063 100.56063 0 0 1 -16.51 21.69l-53.67 53.67a14.99775 14.99775 0 0 1 -21.21-21.21l53.67-53.67c.16-.16.32-.32.47-.48a69.874 69.874 0 0 0 20.07-47c.03-.74.04-1.48.04-2.22q0-3.42-.32-6.78a70.2081 70.2081 0 0 0 -20.26-42.92c-1.07-1.07-2.16-2.1-3.29-3.08a70.28966 70.28966 0 0 0 -92.82 0c-1.13.98-2.22 2.01-3.29 3.08l-123.02 123.02a70.3745 70.3745 0 0 0 0 99.4 14.99773 14.99773 0 0 1 -21.21 21.21 100.39527 100.39527 0 0 1 0-141.81995l123.02-123.02005a100.38657 100.38657 0 0 1 156.21 18.13 96.266 96.266 0 0 1 4.97 9 99.43233 99.43233 0 0 1 9.78 37q.225 3.375.23 6.78z" fill="#3f3d56" transform="translate(-120.5 -172.75)"/><path d="m245.8155 699.41567c-4.58109 16.93445-20.27235 27.42238-20.27235 27.42238s-8.26385-16.96824-3.68276-33.90269 20.27235-27.42236 20.27235-27.42236 8.26384 16.96822 3.68276 33.90267z" fill="#6c63ff" transform="translate(-120.5 -172.75)"/><path d="m204.14038 699.41567c4.58109 16.93445 20.27235 27.42238 20.27235 27.42238s8.26384-16.96824 3.68276-33.90269-20.27235-27.42236-20.27235-27.42236-8.26385 16.96822-3.68276 33.90267z" fill="#6c63ff" transform="translate(-120.5 -172.75)"/><path d="m210.872 695.77627c12.57057 12.237 14.106 31.048 14.106 31.048s-18.84552-1.029-31.41609-13.26592-14.106-31.048-14.106-31.048 18.84548 1.02898 31.41609 13.26592z" fill="#3f3d56" transform="translate(-120.5 -172.75)"/><path d="m239.08391 695.77627c-12.57057 12.237-14.106 31.048-14.106 31.048s18.84552-1.029 31.41609-13.26592 14.106-31.048 14.106-31.048-18.84552 1.02898-31.41609 13.26592z" fill="#3f3d56" transform="translate(-120.5 -172.75)"/><path d="m803.5 271.25a20.24728 20.24728 0 0 1 -.4 4 20.005 20.005 0 0 1 -39.2 0 20.17518 20.17518 0 0 1 .23-9 20 20 0 0 1 39.37 5z" fill="#3f3d56" transform="translate(-120.5 -172.75)"/><path d="m508.5 574.25a20.24728 20.24728 0 0 1 -.4 4 20.005 20.005 0 0 1 -39.2 0 20.17518 20.17518 0 0 1 .23-9 20 20 0 0 1 39.37 5z" fill="#3f3d56" transform="translate(-120.5 -172.75)"/><path d="m0 552.5h231v2h-231z" fill="#3f3d56"/><g fill="#6c63ff"><path d="m699.18 220.25h42.63c-1.13.98-2.22 2.01-3.29 3.08l-5.92 5.92h-42.42z" transform="translate(-120.5 -172.75)"/><path d="m878.49 229.25h-35.28a70.16209 70.16209 0 0 0 -5.29-5.92c-1.07-1.07-2.16-2.1-3.29-3.08h38.89a96.266 96.266 0 0 1 4.97 9z" transform="translate(-120.5 -172.75)"/><path d="m532.68 93.5h42.42l-9 9h-42.42z"/><path d="m802.87 266.25a20.17518 20.17518 0 0 1 .23 9h-39.2a20.17518 20.17518 0 0 1 .23-9z" transform="translate(-120.5 -172.75)"/><path d="m888.5 273.03q0 1.11-.03 2.22h-30.01c.03-.74.04-1.48.04-2.22q0-3.42-.32-6.78h30.09q.225 3.375.23 6.78z" transform="translate(-120.5 -172.75)"/><path d="m485.68 140.5h42.42l-9 9h-42.42z"/><path d="m880.14 313.25a96.82561 96.82561 0 0 1 -4.5 9h-37.25a69.43047 69.43047 0 0 0 7.49-9z" transform="translate(-120.5 -172.75)"/><path d="m441.51 523.25a69.76893 69.76893 0 0 0 -4.57 9h-31.72q1.27506-4.575 2.99-9z" transform="translate(-120.5 -172.75)"/><path d="m559.32 350.5-9 9h-42.42l9-9z"/><path d="m434.03 578.25h-30.77q-.855-4.455-1.29-9h30.2a68.42389 68.42389 0 0 0 1.86 9z" transform="translate(-120.5 -172.75)"/><path d="m508.5 574.25a20.24728 20.24728 0 0 1 -.4 4h-39.2a20.17518 20.17518 0 0 1 .23-9h38.74a20.14631 20.14631 0 0 1 .63 5z" transform="translate(-120.5 -172.75)"/><path d="m513.32 396.5-9 9h-42.42l9-9z"/><path d="m476.94 625.25h-50.85a96.84877 96.84877 0 0 1 -6.99-9h41.24a69.57992 69.57992 0 0 0 16.6 9z" transform="translate(-120.5 -172.75)"/><path d="m586.82 616.25-9 9h-51.2a69.57992 69.57992 0 0 0 16.6-9z" transform="translate(-120.5 -172.75)"/></g><path d="m436.094 342.48439c-7.6454-12.91835-22.77119-13.5204-22.77119-13.5204s-14.73923-1.88484-24.19435 17.79c-8.81293 18.33853-20.97589 36.04476-1.95814 40.33768l3.43516-10.69175 2.12738 11.48773a74.41154 74.41154 0 0 0 8.137.13907c20.36647-.65755 39.76246.19238 39.13794-7.116-.83024-9.71542 3.44257-25.9963-3.9138-38.42633z" fill="#2f2e41" transform="translate(-120.5 -172.75)"/><path d="m260.5 455 1 26h18l-1-28z" fill="#fbbebe"/><path d="m430 443.75-1.82 6.05-23.58 78.33-2.6 8.62 2 92-25 3s-.73-9.66-1.8-23.92c-2.15-28.24-5.67-74.55-7.71-99.75-.75-9.32-1.29-15.75-1.49-17.33-1-8 12-48 12-48l26-2z" fill="#2f2e41" transform="translate(-120.5 -172.75)"/><path d="m387 650.75s-7-8-8-2-13 29-13 29-35 23-5 25c0 0 15-2 20-10 0 0 8-5 10-5s14-4 12-10-1-28-1-28z" fill="#2f2e41" transform="translate(-120.5 -172.75)"/><path d="m265.5 431 9 17 14-7-9-20z" fill="#fbbebe"/><path d="m379 554.75s-7.46-16.3-9.5-41.5c14.48-16.18 32-34 32-34l21-1 6.5-.5c1.52 15.2-11.34 34.78-24.4 50.38a279.192 279.192 0 0 1 -25.6 26.62z" opacity=".2" transform="translate(-120.5 -172.75)"/><path d="m405 478.75s-64 56-55 79 34 51 34 51l19.31461-11.528-18.31461-42.472s7.67809-6.80887 17.024-16.89766c15.20875-16.41759 34.83415-41.52086 32.976-60.10234l-1-34-17 2z" fill="#2f2e41" transform="translate(-120.5 -172.75)"/><path d="m399 616.75s-7 0-6 6 3 16 3 16-8 47 11 36 14-40 14-40 7-18-2-20-12-4-13-3-7 5-7 5z" fill="#2f2e41" transform="translate(-120.5 -172.75)"/><circle cx="292.5" cy="181" fill="#fbbebe" r="18"/><path d="m406 360.75s8 21 5 22-9 6-9 6l10 9 26-14s-12-16-11-23z" fill="#fbbebe" transform="translate(-120.5 -172.75)"/><path d="m438 379.75s-20.92467 10.315-28.46234 3.65748c0 0-12.53766-.65748-14.53766 6.34252s2 13-3 15-8.5 7.5-5.5 16.5 2.5 10.5-1.5 13.5-8 9-8 11-4 2-2 4-2 0 2 2 15-16 23-7 33 24 35 15 8-31 8-31 21-39 15-43-20-6-20-6z" fill="#cfcce0" transform="translate(-120.5 -172.75)"/><path d="m435 449.75s-11-2-14 5-20 23-9 24 19-17 19-17l11-2z" fill="#fbbebe" transform="translate(-120.5 -172.75)"/><path d="m446 385.75 13.07813.72835s5.92187 6.27165 6.92187 12.27165 20 51 8 56-38 8-38 8l-3-14 17-6-12-25z" fill="#cfcce0" transform="translate(-120.5 -172.75)"/><path d="m266 382.5 16.449 41.123-19.449-41.123 17-18z" opacity=".2"/><path d="m256.143 427.766 6.857 8.734h-5z" opacity=".2"/><circle cx="294.67402" cy="156.27942" fill="#2f2e41" r="10.93678"/><path d="m403.086 326.15133a10.9372 10.9372 0 0 1 9.78554-10.8753 11.04689 11.04689 0 0 0 -1.15124-.06148 10.93678 10.93678 0 1 0 0 21.87355 11.04689 11.04689 0 0 0 1.15124-.06148 10.93719 10.93719 0 0 1 -9.78554-10.87529z" fill="#2f2e41" transform="translate(-120.5 -172.75)"/><path d="m312.214 168.489-14.944-7.827-20.636 3.202-4.27 18.857 10.629-.409 2.969-6.928v6.814l4.904-.189 2.846-11.029 1.779 11.741 17.434-.356z" fill="#2f2e41"/></svg>