<svg enable-background="new 0 0 512.001 512.001" viewBox="0 0 512.001 512.001" xmlns="http://www.w3.org/2000/svg"><g fill="#333e48"><path d="m343.136 503.866c36.185 0 65.521-29.336 65.521-65.522v-277.553c0-84.309-68.347-152.657-152.657-152.657-84.311 0-152.657 68.347-152.657 152.657v277.553c0 36.187 29.334 65.522 65.521 65.522z"/><path d="m101.158 325.044c14.712 14.709 38.557 14.709 53.265 0 14.707-14.71 14.707-38.554 0-53.262l-91.134-91.133c-29.415 29.415-29.415 77.106-.002 106.523z"/><path d="m410.842 325.044c-14.712 14.709-38.557 14.709-53.265 0-14.707-14.71-14.707-38.554 0-53.262l91.134-91.133c29.414 29.415 29.414 77.106 0 106.523z"/></g><path d="m256.001 294.739c-46.041 0-83.364 37.324-83.364 83.365v125.762h166.729v-125.761c-.001-46.042-37.325-83.366-83.365-83.366z" fill="#e8e8e8"/><path d="m354.804 178.141v-43.709c0-29.978-24.304-54.28-54.28-54.28-18.437 0-34.714 9.197-44.524 23.244-9.811-14.046-26.088-23.244-44.524-23.244-29.977 0-54.28 24.303-54.28 54.28v43.709c-6.756 8.449-10.807 19.16-10.807 30.819 0 27.283 22.119 49.401 49.403 49.401h120.416c27.283 0 49.401-22.118 49.401-49.401 0-11.659-4.049-22.37-10.805-30.819z" fill="#fff"/><path d="m280.749 188.989c0-13.667-11.08-24.748-24.748-24.748s-24.748 11.083-24.748 24.748c0 13.669 24.748 24.749 24.748 24.749s24.748-11.081 24.748-24.749z" fill="#ed9900"/><path d="m211.744 467.171h-40.43c-10.132 0-18.348 8.216-18.348 18.349 0 10.135 8.215 18.348 18.348 18.348h40.43c10.135 0 18.349-8.213 18.349-18.348 0-10.133-8.214-18.349-18.349-18.349z" fill="#ed9900"/><path d="m300.253 467.171h40.432c10.134 0 18.348 8.216 18.348 18.349 0 10.135-8.214 18.348-18.348 18.348h-40.432c-10.131 0-18.345-8.213-18.345-18.348-.001-10.133 8.214-18.349 18.345-18.349z" fill="#ed9900"/><path d="m454.463 174.897c-3.178-3.175-8.327-3.175-11.503 0l-26.168 26.168v-40.274c-.001-88.66-72.131-160.791-160.791-160.791s-160.792 72.131-160.792 160.791v40.274l-26.168-26.168c-3.178-3.175-8.327-3.175-11.503 0-32.537 32.539-32.538 85.484-.002 118.025l37.673 37.676v107.747c0 40.613 33.041 73.656 73.655 73.656h174.272c40.613 0 73.655-33.043 73.655-73.656v-107.747l37.673-37.676c32.537-32.541 32.536-85.486-.001-118.025zm-359.254 132.694-26.17-26.171c-24.248-24.253-26.051-62.581-5.403-88.923l31.573 31.574zm116.535 188.142h-40.43c-5.632 0-10.214-4.582-10.214-10.214s4.582-10.215 10.214-10.215h40.43c5.632 0 10.215 4.583 10.215 10.215 0 5.633-4.583 10.214-10.215 10.214zm64.081 0h-39.65c1.321-3.144 2.052-6.595 2.052-10.214 0-14.603-11.88-26.482-26.482-26.482h-30.975v-80.932c0-41.483 33.749-75.232 75.231-75.232s75.231 33.749 75.231 75.232v80.932h-30.974c-14.603 0-26.482 11.88-26.482 26.482-.003 3.619.729 7.07 2.049 10.214zm64.862 0h-40.43c-5.632 0-10.215-4.582-10.215-10.214s4.583-10.215 10.215-10.215h40.43c5.632 0 10.214 4.583 10.214 10.215 0 5.633-4.582 10.214-10.214 10.214zm59.836-57.389c0 23.263-13.922 43.323-33.862 52.324.33-1.666.506-3.388.506-5.149 0-12.248-8.358-22.575-19.67-25.59v-81.824c0-50.453-41.046-91.499-91.498-91.499s-91.498 41.047-91.498 91.499v81.824c-11.311 3.014-19.67 13.342-19.67 25.59 0 1.761.177 3.483.506 5.149-19.941-9.001-33.862-29.061-33.862-52.324v-277.553c.002-79.691 64.834-144.524 144.526-144.524s144.523 64.833 144.523 144.524v277.553zm42.438-156.924-26.17 26.171v-83.52l31.573-31.574c20.649 26.342 18.846 64.67-5.403 88.923zm-131.007-146.045c-5.921 0-10.725 4.801-10.725 10.726 0 5.922 4.803 10.726 10.725 10.726 5.924 0 10.726-4.803 10.726-10.726 0-5.925-4.802-10.726-10.726-10.726zm-111.908 0c-5.924 0-10.726 4.801-10.726 10.726 0 5.922 4.802 10.726 10.726 10.726 5.921 0 10.725-4.803 10.725-10.726-.001-5.925-4.804-10.726-10.725-10.726z" fill="#1e252b"/></svg>