<svg width="16" height="16" viewBox="0 0 16 16" fill="none" xmlns="http://www.w3.org/2000/svg">
<path d="M14.5 3.97344C14.0219 4.17969 13.5016 4.32812 12.9656 4.38594C13.5221 4.05537 13.9387 3.53312 14.1375 2.91719C13.6154 3.22779 13.0434 3.4456 12.4469 3.56094C12.1976 3.29442 11.8961 3.08209 11.5611 2.9372C11.2262 2.7923 10.865 2.71794 10.5 2.71875C9.02344 2.71875 7.83594 3.91562 7.83594 5.38437C7.83594 5.59062 7.86094 5.79687 7.90157 5.99531C5.69063 5.87969 3.71876 4.82344 2.40782 3.20625C2.16895 3.61424 2.04378 4.07879 2.04532 4.55156C2.04532 5.47656 2.51563 6.29219 3.23282 6.77187C2.81017 6.75523 2.39742 6.63906 2.02813 6.43281V6.46562C2.02813 7.76094 2.94376 8.83437 4.16407 9.08125C3.93494 9.14077 3.69924 9.17121 3.46251 9.17187C3.28907 9.17187 3.12501 9.15469 2.95938 9.13125C3.29688 10.1875 4.27969 10.9547 5.45001 10.9797C4.53438 11.6969 3.38751 12.1187 2.14219 12.1187C1.91876 12.1187 1.71251 12.1109 1.49844 12.0859C2.67969 12.8437 4.08126 13.2812 5.59063 13.2812C10.4906 13.2812 13.1719 9.22187 13.1719 5.69844C13.1719 5.58281 13.1719 5.46719 13.1641 5.35156C13.6828 4.97187 14.1375 4.50156 14.5 3.97344Z" fill="white"/>
</svg>
