<svg viewBox="0 0 90 90" xmlns="http://www.w3.org/2000/svg"><path d="m0 0h90v90h-90z" fill="#fff"/><path d="m51.86 28.64a7.39 7.39 0 0 1 5.32-8l.6-.18h1.67l13.62.68a1.67 1.67 0 0 1 1 3l-13.07 10.06a7.47 7.47 0 0 1 -1.78.6 7.23 7.23 0 0 1 -7.36-6.16z" fill="#ffa400"/><path d="m61.25 42.32-.25-6.45.22 6.46c2.54 3 14.58 18.1 14.58 37.6v1.94a3.33 3.33 0 0 1 -3.36 3.13h-54.61c0-3.79 23.44-9.91 23.44-19.73.01-16.64 13.37-21.54 19.98-22.95z" fill="#e6e6e6"/><path d="m61 34.2c-3.85.13-7.43-.9-8-5.12a7.93 7.93 0 0 1 5.73-8.4l.64-.19a23.33 23.33 0 0 0 -28.45-14.59 23 23 0 0 0 -16.67 22.25v.12c0 2.11-.19 33.58 0 53.46 0 1.82 2 3.26 3.79 3.26h3.42a19.77 19.77 0 0 0 19.82-19.72c0-16.65 13.36-21.54 20-23z" fill="#404041"/><path d="m33.86 24.17a6.7 6.7 0 1 0 6.73-6.67 6.68 6.68 0 0 0 -6.7 6.66zm2.91 0a3.79 3.79 0 1 1 3.81 3.77 3.78 3.78 0 0 1 -3.79-3.77z" fill="#fff"/><ellipse cx="40.56" cy="24.17" fill="#2b2b2b" rx="3.79" ry="3.77"/></svg>