<svg viewBox="0 0 510.8 510.8" xmlns="http://www.w3.org/2000/svg"><path d="m0 0h510.8v510.8h-510.8z" fill="#fff"/><path d="m337.85 397.15c6 25 16.91 58.25 32 58.25 11.72 0 19.49-23.33 24.38-47.28-28.35 3.74-51.69-8.33-56.38-10.97z" fill="#ffcb9d"/><path d="m195.59 386s-28.21 16-59.67 12.68c6.12 24.81 16.85 56.76 31.59 56.76 15.41 0 24-40.23 28.16-69.28z" fill="#ffcb9d"/><path d="m83.28 235.57s-31.8-57.26 0-101.59c30.43-42.42 83.48-26.81 83.48-26.81s19-42.74 61-49.36c46-7.23 70 29.85 70 29.85s49.43-24.41 85.69 4.49c36.06 28.74 26.42 66.85 26.42 66.85s49.53 2 61.37 48.06c11.07 43.1-18.8 71.39-18.8 71.39s37.54 70.11-18.61 113c-47 35.88-96.84 5.25-96.84 5.25s-24.62 34.88-83.71 27.6c-41-5.06-57.69-38.29-57.69-38.29s-59.79 34-102.34-7.35c-47.74-46.41-9.97-143.09-9.97-143.09z" fill="#ffe9c8"/><path d="m195.67 386.12-.08-.16s-28.21 16-59.67 12.68c1.92 7.79 4.3 16.28 7.11 24.26 21.09.42 39.76-7 48-10.84 1.97-8.77 3.47-17.79 4.64-25.94z" fill="#ffba7e"/><path d="m337.85 397.15a261.49 261.49 0 0 0 8.2 27.77 96.14 96.14 0 0 0 41.74 7.61 201 201 0 0 0 6.4-24.41c-28.31 3.74-51.65-8.33-56.34-10.97z" fill="#ffba7e"/><path d="m409.87 135.15h.13c0-.08 0-.17-.05-.25a1.6 1.6 0 0 1 -.08.25z" fill="#ffdca7"/><path d="m433.83 367.58c-47 35.88-96.84 5.25-96.84 5.25s-24.62 34.88-83.71 27.6c-41-5.06-57.69-38.29-57.69-38.29s-59.79 34-102.34-7.35c-15.59-15.14-22.06-35.64-23.7-56.4-2 28 2.1 59.25 23.7 80.23 42.55 41.32 102.34 7.38 102.34 7.38s16.65 33.24 57.69 38.29c59.09 7.28 83.71-27.6 83.71-27.6s49.83 30.64 96.84-5.25c28.91-22.06 33-51.34 30.13-74.57-2.34 17.43-10.51 35.74-30.13 50.71z" fill="#ffdca7"/><path d="m195.31 230.1c-7.91-38.52-50.69-58.41-85.64-40.63-32.63 16.6-75.19 44-72.22 73.15 3.63 35.58 56.4 50.59 102.85 44.2 36.21-5 61.8-39 55.34-75.06-.1-.55-.21-1.11-.33-1.66z" fill="#ffcb9d"/><path d="m195.5 231.05a65.28 65.28 0 0 1 -55.2 51.95c-42.23 5.82-89.7-6.07-100.69-35a31.65 31.65 0 0 0 -2.16 14.66c3.63 35.58 56.4 50.59 102.85 44.2 36.21-5 61.8-39 55.34-75.06-.05-.28-.1-.51-.14-.75z" fill="#ffba7e"/><path d="m131.44 219c-7.48 0-13.35 7.3-13.35 16.62s5.87 16.62 13.35 16.62 13.34-7.3 13.34-16.62-5.86-16.62-13.34-16.62z" fill="#433f43"/><path d="m169.63 162.73s-4.23-28.22 22.74-26.73c26.33 1.42 26.11 34.1 7.41 40.09z" fill="#ffcb9d"/></svg>