<svg viewBox="0 0 517.38 163.8" xmlns="http://www.w3.org/2000/svg"><path d="m36.78 7c-.06 0-.11-6.31-.17-6.31-20.07-.05-36.34 40.87-36.34 83.56s16.27 77.31 36.34 77.31h.17z" fill="#2ea7e0"/><path d="m36.61 161.83c-20.19 0-36.61-34.83-36.61-77.58 0-44.68 17.11-83.88 36.61-83.88.29 0 .29 0 .35 3.42 0 1.08 0 2.38.07 2.89v155.15zm-.25-160.91c-19.11.33-35.82 39.13-35.82 83.34 0 42.4 16.13 76.92 36 77v-154.26c-.06-.36-.08-1.2-.11-3.15-.03-1.13-.05-2.42-.07-2.93z" fill="#2ea7e0"/><path d="m248.94 7c-.06 0-.12-6.31-.18-6.31-20.07 0-36.33 40.92-36.33 83.61s16.26 77.31 36.33 77.31h.18z" fill="#2ea7e0"/><path d="m248.76 161.83c-20.18 0-36.61-34.8-36.61-77.58 0-44.68 17.11-83.88 36.61-83.88.3 0 .3 0 .36 3.43 0 1.08 0 2.37.06 2.88v155.15zm-.25-160.91c-19.11.33-35.81 39.13-35.81 83.34 0 42.4 16.12 76.92 36 77v-154.26c-.06-.36-.07-1.19-.11-3.14-.03-1.13-.05-2.43-.08-2.94z" fill="#2ea7e0"/><path d="m477.34 6.58c-.06 0-.11-6.31-.17-6.31-20.07 0-36.34 40.92-36.34 83.61s16.27 77.31 36.34 77.31h.17z" fill="#2ea7e0"/><path d="m477.17 161.46c-20.19 0-36.61-34.8-36.61-77.58 0-44.68 17.11-83.88 36.61-83.88.29 0 .29 0 .35 3.44 0 1.07.05 2.36.07 2.87v155.15zm-.25-160.92c-19.11.34-35.82 39.14-35.82 83.34 0 42.41 16.13 76.93 36 77v-154.3c-.1-.36-.1-1.19-.1-3.13 0-1.09-.06-2.39-.08-2.91z" fill="#2ea7e0"/><path d="m95.11 66.08s-.11-3.91-.11-3.91c-12.44 0-22.53 25.36-22.53 51.82s10.1 47.92 22.53 47.92h.1z" fill="#2ea7e0"/><path d="m95 162.18c-12.57 0-22.8-21.62-22.8-48.19.01-27.75 10.66-52.09 22.8-52.09.28 0 .28 0 .32 2.22v1.69 96.36zm-.26-99.74c-11.75.34-22 24.28-22 51.55 0 26.16 9.9 47.46 22.09 47.65v-95.56c0-.28 0-.83-.07-2 .02-.56.01-1.28-.01-1.64z" fill="#2ea7e0"/><path d="m109 65.66s-.07-4-.11-4c-12.63 0-22.87 25.75-22.87 52.63s10.27 48.71 22.9 48.71h.08z" fill="#2ea7e0"/><path d="m108.92 163.8c-13.06 0-23.69-22.2-23.69-49.48 0-25.32 9.77-53.46 23.69-53.46.83 0 .83.16.88 2.8v1.19 99zm-.79-101.25c-11.23 1.09-21.26 25.27-21.26 51.77 0 25.86 9.51 47 21.34 47.81v-96.47c0-.42-.06-1-.08-2 .02-.33.01-.75 0-1.11z" fill="#fff"/><g fill="#2ea7e0"><path d="m172.68 65.58s-.07-3.91-.1-3.91c-12.44 0-22.53 25.36-22.53 51.82s10.09 47.92 22.53 47.92h.1z"/><path d="m172.58 161.68c-12.57 0-22.8-21.62-22.8-48.19 0-27.75 10.65-52.09 22.8-52.09.28 0 .28 0 .32 2.22v1.69 96.36zm-.26-99.74c-11.75.34-22 24.28-22 51.55 0 26.16 9.9 47.46 22.09 47.65v-95.56c0-.28-.05-.83-.07-1.95.01-.63 0-1.33-.02-1.69z"/><path d="m310.25 65.21s-.08-3.91-.11-3.91c-12.44 0-22.52 25.36-22.52 51.82s10.08 47.88 22.52 47.88h.11z"/><path d="m310.14 161.31c-12.57 0-22.79-21.62-22.79-48.19 0-27.75 10.65-52.12 22.79-52.12.28 0 .28 0 .32 2.22v1.69 96.39zm-.25-99.74c-11.75.34-22 24.28-22 51.55 0 26.16 9.9 47.46 22.1 47.65v-95.56a17.68 17.68 0 0 1 -.08-1.95c0-.61-.01-1.33-.02-1.69z"/><path d="m373.28 65.79s-.07-3.91-.11-3.91c-12.44 0-22.52 25.36-22.52 51.83s10.08 47.92 22.52 47.92h.11z"/><path d="m373.17 161.9c-12.57 0-22.79-21.62-22.79-48.19 0-27.75 10.65-52.09 22.79-52.09.28 0 .28 0 .32 2.24v1.67 96.36zm-.25-99.74c-11.75.34-22 24.28-22 51.55 0 26.16 9.89 47.46 22.09 47.65v-95.56c0-.27 0-.82-.07-1.93.06-.62-.01-1.35-.02-1.71z"/><path d="m515.69 161.51s1.42-.08 1.42-.11c0-12.44-9.18-22.52-18.75-22.52s-17.36 10.12-17.36 22.52v.11z"/><path d="m516 161.78h-35.25v-.38c0-12.57 7.9-22.79 17.61-22.79 10.13 0 19 10.65 19 22.79 0 .27-.09.28-1 .32h-.46zm-34.67-.54h34.38a6.28 6.28 0 0 1 .72-.06h.45c-.12-11.76-8.7-22-18.48-22-9.4-.04-17.05 9.82-17.11 22.06z"/><path d="m482.09 84.5c0 .09-1.43.17-1.43.25 0 29 9.27 52.58 18.94 52.58s17.51-23.54 17.51-52.58v-.25z"/><path d="m499.6 137.57c-10.22 0-19.19-24.68-19.19-52.82 0-.26.18-.28.94-.37l.49-.06v-.06h35.51v.5c.01 29.12-7.96 52.81-17.75 52.81zm-18.69-52.63c0 13.71 2.08 26.81 5.82 36.9 3.59 9.68 8.28 15.24 12.87 15.24 9.52 0 17.26-23.48 17.26-52.33h-34.7a3.82 3.82 0 0 1 -.76.12z"/><path d="m403.21 161.66c0-.16 1-.31 1-.48 0-55.22-6.68-100-13.64-100s-12.57 44.82-12.57 100v.48z"/><path d="m403.48 161.93h-25.76v-.75c0-56.21 5.66-100.25 12.88-100.25 7.41 0 13.91 46.85 13.91 100.25 0 .28-.3.37-.71.5l-.32.11zm-25.22-.54h24.82a2.17 2.17 0 0 1 .56-.22l.33-.11c0-26.2-1.5-51.25-4.21-70.54-2.55-18.19-6-29-9.16-29-6.69 0-12.34 45.66-12.34 99.71z"/></g></svg>